<?xml version="1.0" encoding="utf-8"?>
<!-- Generator: Adobe Illustrator 16.0.0, SVG Export Plug-In . SVG Version: 6.00 Build 0)  -->
<!DOCTYPE svg PUBLIC "-//W3C//DTD SVG 1.1//EN" "http://www.w3.org/Graphics/SVG/1.1/DTD/svg11.dtd">
<svg version="1.1" id="Layer_1" xmlns="http://www.w3.org/2000/svg" xmlns:xlink="http://www.w3.org/1999/xlink" x="0px" y="0px"
	 width="280px" height="280px" viewBox="0 0 280 280" enable-background="new 0 0 280 280" xml:space="preserve">
<path fill-rule="evenodd" clip-rule="evenodd" fill="#FFA726" d="M197.9,243.891c-0.078,0.021-0.15,0.024-0.229,0.044
	c4.29,0.08,8.074-1.276,8.074-1.276c2.918,2.333,2.041,9.928-13.424,7.594c-7.754-1.172-12.131-5.061-14.57-8.646h-0.002
	c0,0-0.027-0.047-0.039-0.066c-2.387-3.538-2.895-6.766-2.895-6.766c-0.003-0.36,0.026-0.663,0.051-0.978
	c-0.445-3.178,0.213-6.492,4.02-8.158c0.454-0.199,0.863-0.347,1.25-0.467c0-0.002-0.002-0.008-0.002-0.008s0.086-0.018,0.148-0.033
	c0.568-0.166,1.076-0.264,1.515-0.277c4.452-0.736,16.244-1.98,13.401,6.234c6.107-2.258,9.711-10.096,9.711-10.096
	c3.207-0.331,7.27,4.984,0.203,12.354c2.721-1.694,4.636-3.311,4.636-3.311C213.332,231.095,213.1,240.208,197.9,243.891z"/>
<path fill-rule="evenodd" clip-rule="evenodd" fill="#1B79CC" d="M170.962,236.484c3.93-3.057,20.911-18.671,20.911-18.671
	s28.311,3.612,30.906,3.431s9.764-11.788,8.527-14.19c-1.233-2.405-13.165-3.438-13.165-3.438s22.421,0.571,23.229-1.795
	c0.759-2.22,0.188-12.63-1.458-14.276c-2.624-2.625-21.396,2.744-21.396,2.744s20.732-6.477,20.967-10.609
	c0.16-2.82-7.859-11.805-10.466-10.789c-2.018,0.786-23.315,10.701-23.315,10.701s15.031-10.669,14.438-11.583
	c-0.593-0.912-0.272-0.332-0.515-0.536l0.003-0.002l-0.024-0.018c-0.394-0.333-0.957-0.731-1.631-1.157
	c-1.011-0.652-2.46-1.498-4.266-2.297c-1.524-0.703-3.05-1.28-4.26-1.533c-6.199-1.723-14.661-1.936-23.779,4.084
	c-12.235,8.071-0.287,14.89,8.97,18.515c-3.004,3.139-6.094,8.461-6.248,11.604c-0.224,4.588,1.082,7.355,1.082,7.355
	l-25.332,15.269L170.962,236.484z"/>
<path fill-rule="evenodd" clip-rule="evenodd" fill="#1E88E5" d="M151.111,247.711c-1.087,0.269-2.17,0.516-3.249,0.741
	c-8.699,2.545-17.849,3.686-27.168,3.483c-5.727-0.124-11.519-0.755-17.304-1.882l-0.522-0.104
	c-17.094-3.556-35.312-12.347-49.928-23.338c-3.367-2.535-6.542-5.181-9.468-7.913l-0.259-0.238l-0.105-0.102
	c-21.441-20.315-31.605-43.886-34.848-52.607l-0.086-0.24c-0.777-2.162-1.491-4.336-2.142-6.508
	c-3.535-11.806-5.205-23.744-5.018-35.313c0.188-11.766,3.446-22.044,6.542-31.382c6.293-18.98,18.134-33.336,25.791-51.614
	c0,0-2.42,17.232,0.405,18.711c2.824,1.481,42.236-43.885,42.236-43.885s-11.239,23.788-6.871,24.363
	c4.369,0.574,39.961-21.132,39.961-21.132S90.226,35.116,95.75,36.155c5.524,1.037,30.946-1.654,30.946-1.654
	s-19.111,5.483-12.874,7.469l0.003,0c8.64,2.48,17.19,6.052,25.426,10.673c7.715,4.411,23.616,14.751,37.784,31.849l-0.095-0.096
	c-0.421-0.499-0.847-0.993-1.277-1.487c0.627,0.744,1.247,1.493,1.864,2.254c4.195,5.177,7.938,10.549,11.231,16.056l0.039,0.064
	c8.963,15.398,13.546,29.659,15.862,40.858c1.59,8.046,2.321,16.079,2.196,23.94v0.002c-0.25,15.491-3.841,30.313-10.754,43.218
	c-0.689,1.385-1.389,2.72-2.096,4.01c-3.412,8.064-9.167,15.84-17.012,22.205c-0.693,0.562-1.393,1.105-2.104,1.635
	C167.396,242.729,159.152,246.256,151.111,247.711z"/>
<path fill-rule="evenodd" clip-rule="evenodd" fill="#FFA726" d="M10.458,171.236c0,0,15.212,1.602,16.361,8.294
	c0.525,3.056-1.003,5.056-2.82,6.326c0.839,1.708,1.663,3.701,2.453,5.817v-0.002l0.002,0.008l0.005,0.021
	c0.409,1.097,0.805,2.229,1.191,3.364c1.131,3.112,2.817,7.509,3.958,9.411c1.854,3.097,5.51,7.474,5.51,7.474
	s-1.482,0.959-4.453,0.704l0.013,0.052c0,0-0.22-0.036-0.621-0.121c-1.05-0.142-2.26-0.431-3.635-0.949v-0.003
	c-6.559-2.008-18.803-7.276-22.921-19.329C-0.229,175.535,10.458,171.236,10.458,171.236z"/>
<path fill-rule="evenodd" clip-rule="evenodd" fill="#FFFFFF" d="M56.239,228.997c0,0,0.522-24.979,27.378-25.011
	c26.859-0.031,23.978,16.697,23.978,16.697s16.941-2.25,27.553,4.008c11.048,6.512,21.521,21.538,21.521,21.538
	s-27.896,9.82-55.954,4.308C79.083,246.287,56.239,228.997,56.239,228.997z"/>
<path fill-rule="evenodd" clip-rule="evenodd" fill="#3594E8" d="M162.008,75.041c34.289,0.555,71.488,4.265,116.164-18.065
	c-10.944,12.079-18.277,23.374-26.901,42.052c4.128-2.372,14.159-5.062,21.416-5.524c-5.873,2.866-11.583,7.811-13.356,13.452
	c-13.293,42.258-43.279,64.042-56.328,70.655c-15.01,7.604-90.721,21.109-98.382-36.924
	C97.631,87.746,146.932,74.798,162.008,75.041z"/>
<path fill-rule="evenodd" clip-rule="evenodd" fill="#1E88E5" d="M249.799,111.016c-14.446,12.872-11.924,20.659-32.794,34.875
	c-18.88,12.859-38.317,14.744-38.938,15.09c2.801,1.7,18.443,5.422,18.443,5.422s-12.135,2.019-35.332,2.019
	c-30.803,0-38.352-32.919-38.352-40.175c0-20.62,16.7-37.335,37.302-37.335c1.408,0,16.304,0.112,22.04,1.328
	c7.661,1.621,35.053-2.702,38.533-3.624c-3.232,1.33-26.152,10.855-22.144,12.144c22.854,4.493,30.542-6.468,49.191-18.461
	c-15.01,16.054-15.723,23.896-22.544,34.872C229.071,115.799,241.95,117.232,249.799,111.016z M220.701,88.615
	c0.244-0.1,0.403-0.164,0.403-0.164C221.186,88.474,221,88.538,220.701,88.615z"/>
<path fill-rule="evenodd" clip-rule="evenodd" fill="#FFFFFF" d="M41.287,179.016c0,0-38.637-40.284-8.089-75.181
	c30.548-34.897,65.458,64.142,65.458,64.142S63.929,165.678,41.287,179.016z"/>
<path fill-rule="evenodd" clip-rule="evenodd" fill="#23272B" d="M43.937,169.871c-3.412,0.709-6.879,0.455-10.225-0.609
	c-5.622-8.336-12.375-21.322-12.403-35.634c1.418,2.084,3.708,3.454,6.31,3.454c4.311,0,7.807-3.722,7.807-8.315
	c0-4.595-3.496-8.317-7.807-8.317c-1.839,0-3.506,0.705-4.841,1.838c1.679-6.223,4.911-12.529,10.286-18.668
	c0.115-0.13,0.231-0.243,0.346-0.371c12.066,0.579,23.783,12.215,27.527,28.352C65.18,149.898,57.569,167.029,43.937,169.871z"/>
<path fill-rule="evenodd" clip-rule="evenodd" fill="#1D79C9" d="M48.004,86.871L48.004,86.871c0,0-10.344-0.15-14.71,3.391
	c-4.367,3.539-5.512,1.924-9.148-0.641c-3.638-2.568,3.073-8.457,12.005-7.902C45.081,82.277,48.691,84.678,48.004,86.871z"/>
<path fill-rule="evenodd" clip-rule="evenodd" fill="#23272B" d="M109.334,249.649c0,0-9.376-2.532-17.271-7.904
	c-7.805-5.308-14.128-13.455-14.128-13.455c-1.103-0.776-1.543-1.666-1.326-2.665c0.22-1,0.635-1.678,1.247-2.037
	c0.613-0.357,1.212-0.473,1.799-0.344c0.587,0.127,1.004,0.281,1.254,0.459c0,0,6.679,8.508,14.737,14.105
	c7.946,5.519,17.271,8.127,17.271,8.127c1.622,1.219,2.259,2.633,1.905,4.238L109.334,249.649z"/>
<image display="none" overflow="visible" width="444" height="305" xlink:href="324788CD.html"  transform="matrix(1.023 0 0 1.023 -63.7505 -17.668)">
</image>
<path fill-rule="evenodd" clip-rule="evenodd" fill="#624823" d="M21.268,183.191c0.828-0.585,0.44-2.578-0.868-4.437
	c-1.308-1.857-3.051-2.896-3.879-2.314c-0.828,0.585-0.438,2.576,0.868,4.435C18.696,182.734,20.438,183.776,21.268,183.191z"/>
</svg>
