<?xml version="1.0" encoding="UTF-8" standalone="no"?>
<!-- Generator: Adobe Illustrator 18.0.0, SVG Export Plug-In . SVG Version: 6.00 Build 0)  -->

<svg
   xmlns:dc="http://purl.org/dc/elements/1.1/"
   xmlns:cc="http://creativecommons.org/ns#"
   xmlns:rdf="http://www.w3.org/1999/02/22-rdf-syntax-ns#"
   xmlns:svg="http://www.w3.org/2000/svg"
   xmlns="http://www.w3.org/2000/svg"
   xmlns:sodipodi="http://sodipodi.sourceforge.net/DTD/sodipodi-0.dtd"
   xmlns:inkscape="http://www.inkscape.org/namespaces/inkscape"
   version="1.1"
   id="Layer_1"
   x="0px"
   y="0px"
   viewBox="0 0 22.799999 20.899999"
   enable-background="new 0 0 166.4 58"
   xml:space="preserve"
   inkscape:version="0.48.4 r9939"
   width="100%"
   height="100%"
   sodipodi:docname="logo-bird.html"><metadata
   id="metadata67"><rdf:RDF><cc:Work
       rdf:about=""><dc:format>image/svg+xml</dc:format><dc:type
         rdf:resource="http://purl.org/dc/dcmitype/StillImage" /><dc:title></dc:title></cc:Work></rdf:RDF></metadata><defs
   id="defs65" /><sodipodi:namedview
   pagecolor="#ffffff"
   bordercolor="#666666"
   borderopacity="1"
   objecttolerance="10"
   gridtolerance="10"
   guidetolerance="10"
   inkscape:pageopacity="0"
   inkscape:pageshadow="2"
   inkscape:window-width="1398"
   inkscape:window-height="1048"
   id="namedview63"
   showgrid="false"
   inkscape:zoom="19.445436"
   inkscape:cx="-0.69565519"
   inkscape:cy="7.3574125"
   inkscape:window-x="0"
   inkscape:window-y="0"
   inkscape:window-maximized="0"
   inkscape:current-layer="Logo"
   fit-margin-top="0"
   fit-margin-left="0"
   fit-margin-right="0"
   fit-margin-bottom="0" />
<g
   id="Logo"
   transform="translate(-61.100001,-18.5)">
	<g
   id="g4"
   style="fill:#ffffff;fill-opacity:1">
		
		
		
		
		<path
   d="m 82.4,18.5 c -0.5,0 -0.9,0.3 -1.1,0.9 l -6.9,17.3 -2.2,-5.5 h -1 -1.7 l 2.8,6.8 c 0.4,0.9 1,1.4 1.8,1.4 h 0.6 c 0.8,0 1.4,-0.5 1.8,-1.4 l 7.3,-17.6 c 0.1,-0.1 0.1,-0.4 0.1,-0.6 0,-0.3 -0.1,-0.6 -0.4,-0.8 -0.2,-0.4 -0.6,-0.5 -1.1,-0.5 z"
   id="path14"
   inkscape:connector-curvature="0"
   style="fill:#ffffff;fill-opacity:1" />
	</g>
	<path
   d="m 67.5,19.5 0,0 c -0.2,-0.6 -0.8,-1 -1.5,-1 0,0 0,0 0,0 l 0,0 h -3.6 l 0,0 c 0,0 0,0 0,0 -0.7,0 -1.3,0.6 -1.3,1.3 0,0.7 0.6,1.3 1.3,1.3 0,0 0,0 0,0 l 2.9,0 1.5,3.6 1.6,4 h 2.8 l -3.7,-9.2 z"
   id="path16"
   inkscape:connector-curvature="0"
   style="fill:#104666;fill-opacity:1" />
</g>

</svg>